<svg width="278" height="84" viewBox="0 0 278 84" fill="none" xmlns="http://www.w3.org/2000/svg">
<path d="M60.8172 40.9079C59.4032 40.9079 58.043 41.1296 56.7608 41.5353C56.5088 41.2493 56.2494 40.9697 55.983 40.6968C60.9011 38.8947 66.7504 39.6601 71.2395 43.9636C72.2928 44.9719 73.8843 43.3633 72.8285 42.3502C67.3124 37.0679 60.0191 36.4075 54.1411 39.0315C52.9179 38.05 51.5852 37.2089 50.1685 36.5242C50.1086 36.4959 50.0511 36.4983 49.9936 36.4806L52.2717 29.6309C52.9991 29.8361 53.5803 30.2017 54.1675 30.5402C55.2053 31.1381 56.3317 30.486 57.0795 29.5272C57.6583 28.7877 58.8124 26.942 58.5272 26.0434C58.2432 25.1435 56.9106 24.0113 56.0238 24.0113C52.3124 24.0113 52.3196 26.3559 48.0522 26.3559C46.2163 26.3559 45.1126 26.4361 45.0922 27.231C45.0299 29.8515 46.4644 30.9176 47.35 30.5001C48.3554 30.0248 49.1943 29.7418 49.9133 29.5944L45.532 42.7783C38.832 32.8965 27.6332 30.4034 23.6115 29.8161C24.0177 28.7311 24.424 27.6473 24.8278 26.5623C24.9644 26.1955 24.8026 25.7297 24.539 25.4667L22.2178 23.1398C24.1891 22.2176 26.5175 21.9357 28.6123 21.898C28.683 21.8968 28.7357 21.8673 28.7992 21.8555V22.3555C28.7992 22.6657 29.0509 22.9193 29.3612 22.9193C29.6716 22.9193 29.9233 22.6657 29.9233 22.3555V21.898H33.8551C34.0055 21.8961 34.149 21.8358 34.2543 21.7301C34.3596 21.6245 34.4181 21.4822 34.4172 21.3342V20.2068C34.4184 20.0587 34.36 19.9162 34.2546 19.8105C34.1492 19.7048 34.0056 19.6446 33.8551 19.643H29.9233V18.9743C29.9233 18.6642 29.6716 18.4106 29.3612 18.4106C29.0509 18.4106 28.7992 18.663 28.7992 18.9743V19.6772C28.7357 19.6678 28.683 19.6419 28.6123 19.643C25.6691 19.6961 22.2933 20.1761 19.8054 21.9086C19.2182 22.3178 19.0361 23.1339 19.5778 23.6776L22.4407 26.5481L21.3046 29.5861L21.2459 29.5826L18.7149 37.8203C13.7069 36.8804 8.23039 38.1694 3.86713 42.3478C2.81256 43.3609 4.4028 44.9707 5.45617 43.9612C9.15793 40.4149 13.7836 39.2733 18.0486 39.9891L17.785 40.8465L17.8401 41.0671C17.1978 40.9727 16.5459 40.9067 15.8772 40.9067C8.4437 40.9079 2.39673 46.9721 2.39673 54.4267C2.39673 61.8814 8.4437 67.9456 15.8784 67.9456C23.3131 67.9456 29.36 61.8814 29.36 54.4267C29.36 48.5099 25.5456 43.4836 20.2584 41.6544C20.2161 41.4077 20.1685 41.162 20.1158 40.9173L20.2357 40.5257C25.7985 42.3549 30.2852 47.4344 30.4865 54.4515C30.5285 55.921 32.773 55.9245 32.7311 54.4515C32.7202 54.0522 32.6958 53.6533 32.658 53.2556H32.4962C32.1956 53.2522 31.9086 53.1318 31.698 52.9208C31.4874 52.7097 31.3702 52.4252 31.3721 52.1294C31.3721 51.5727 31.7843 51.1304 32.3128 51.0396C32.2334 50.6785 32.1431 50.3199 32.042 49.9641C32.302 50.3249 32.5717 50.6693 32.8485 51.0019H35.3591C35.9379 51.0019 36.3993 51.4501 36.4592 52.0138L39.7691 53.3417C41.0957 53.8736 40.5169 56.053 39.1723 55.5129L35.0235 53.8477C34.9934 54.0393 34.9777 54.2328 34.9768 54.4267C34.9768 56.9163 36.9889 58.933 39.4707 58.933C40.7541 58.933 41.9034 58.3882 42.7231 57.5225C42.7602 57.526 42.7938 57.5461 42.8309 57.5461H45.6962C45.9967 57.5424 46.2835 57.4219 46.4941 57.2109C46.7046 56.9999 46.8219 56.7155 46.8203 56.4198C46.8203 56.1949 46.7517 55.9751 46.6232 55.789C46.4948 55.6029 46.3126 55.459 46.1001 55.3761H47.3835C47.4602 56.4823 47.6615 57.5532 47.9899 58.5698L39.412 59.4708C39.2298 59.4944 39.062 59.5038 38.8979 59.5038C36.5107 59.5038 34.4148 57.131 34.4148 54.4267C34.4148 54.1567 34.4411 53.8925 34.4867 53.633L33.5555 53.2603L33.5495 53.2556H33.4069C33.3331 53.6418 33.295 54.0338 33.2931 54.4267C33.2931 57.7855 35.8612 60.6218 38.8991 60.6218C39.1124 60.6218 39.3269 60.6089 39.5474 60.5817L48.3878 59.6536C50.4286 64.5208 55.2304 67.9456 60.8172 67.9456C68.2507 67.9456 74.2989 61.8814 74.2989 54.4267C74.2989 46.9721 68.2507 40.9079 60.8172 40.9079ZM20.5269 46.7279C21.8568 47.541 22.9536 48.675 23.7131 50.0224C24.4725 51.3698 24.8694 52.8859 24.8662 54.4267C24.8662 59.3953 20.8336 63.4393 15.8784 63.4393C10.9231 63.4393 6.89061 59.3953 6.89061 54.4267C6.89061 49.4569 10.9231 45.4141 15.8784 45.4141C16.7232 45.4141 17.5369 45.5403 18.3123 45.7597C18.2524 48.379 17.5921 51.5302 15.1606 53.5611L15.1702 53.5729C14.9893 53.7181 14.8584 53.9146 14.7953 54.1357C14.7322 54.3569 14.74 54.5917 14.8176 54.8083C14.8952 55.0249 15.0389 55.2127 15.2289 55.346C15.419 55.4792 15.6462 55.5515 15.8796 55.553C16.1413 55.5486 16.3929 55.4524 16.589 55.2817L16.5974 55.2935C16.6214 55.2735 16.6405 55.2511 16.6645 55.231L16.6789 55.2169C19.3992 52.8936 20.3207 49.6044 20.5269 46.7279ZM20.8936 38.3864L21.9038 35.0972C24.2454 36.8544 25.9723 39.5717 27.596 42.4563C25.7109 40.609 23.4169 39.216 20.8936 38.3864ZM42.6967 51.2979C42.2829 50.8643 41.7834 50.5185 41.2288 50.2818C40.6742 50.0452 40.0764 49.9226 39.4719 49.9216C38.3071 49.9216 37.2549 50.378 36.4568 51.1069C36.2854 50.9736 36.1129 50.8427 35.9499 50.6988C36.7528 49.878 37.7894 49.3508 38.8991 49.3508C39.0632 49.3508 39.231 49.3614 39.3988 49.3827L43.2024 49.7813L42.6967 51.2979ZM43.5643 48.6963L39.5306 48.2717C39.3212 48.2452 39.1102 48.2318 38.8991 48.2316C37.4586 48.2316 36.1272 48.8744 35.123 49.9039C32.3739 47.0299 30.6267 42.842 28.5859 39.7073C26.8986 37.1174 24.9536 34.6939 22.5425 33.0216L22.8577 31.9967C26.2239 32.4614 38.4065 34.8684 44.6081 45.558L43.5643 48.6963ZM57.2976 46.1371C58.0494 47.4595 58.6407 48.8643 59.0592 50.3226L53.1788 49.7034C54.1456 48.1254 55.5841 46.8798 57.2976 46.1371ZM59.3528 51.476C59.4331 51.8333 59.505 52.1942 59.565 52.5563C59.3337 52.7143 59.1335 52.9148 58.9742 53.1448L51.9325 53.1342C52.049 52.3194 52.2771 51.524 52.6108 50.7696L59.3528 51.476ZM49.2865 38.607C50.2249 39.0752 51.114 39.6118 51.9457 40.2061C50.1513 41.3397 48.5865 42.7913 47.3308 44.4872L49.2865 38.607ZM47.4015 53.1283L46.3074 53.1259C46.4188 52.0928 46.6321 51.1092 46.9245 50.1728L47.9911 50.286C47.6963 51.1941 47.4962 52.1459 47.4015 53.1283ZM48.3866 49.201L47.308 49.0866C48.5473 45.9704 50.8336 43.3657 53.7864 41.7063C54.0513 41.9528 54.3065 42.2063 54.5558 42.4658C51.7719 43.9439 49.5926 46.3232 48.3866 49.201ZM51.8822 55.3796C54.1915 55.382 56.5139 55.3843 58.792 55.3843C59.1515 56.1474 59.9197 56.6805 60.8172 56.6805C62.0588 56.6805 63.0642 55.6733 63.0642 54.4279C63.0642 53.5328 62.5393 52.765 61.7831 52.4018C61.7544 52.2237 61.7256 52.0433 61.6933 51.8675C62.7514 52.2721 63.6262 53.1235 63.6262 54.4279C63.6262 56.1038 62.1798 57.0461 60.7453 57.2324L52.612 58.0862C52.2271 57.2269 51.9809 56.3137 51.8822 55.3796ZM60.8172 63.4393C57.5912 63.4393 54.7631 61.7186 53.1788 59.1512L60.8772 58.3433C63.1625 58.0438 64.7491 56.4352 64.7491 54.4267C64.7491 52.5834 63.4045 51.0892 61.4248 50.6245C60.9935 48.8536 60.3453 47.1409 59.4942 45.5238C59.9317 45.4533 60.374 45.4166 60.8172 45.4141C65.7749 45.4141 69.805 49.4569 69.805 54.4267C69.805 59.3953 65.7749 63.4393 60.8172 63.4393Z" fill="#354167"/>
<path d="M90.2017 62V21.0956H105.249C107.469 21.0956 109.466 21.641 111.238 22.7318C113.011 23.8226 114.413 25.2932 115.446 27.1436C116.497 28.9746 117.023 31.0198 117.023 33.2793C117.023 35.1882 116.663 36.9315 115.942 38.5092C115.241 40.0869 114.248 41.4309 112.962 42.5412C111.696 43.6515 110.245 44.4501 108.609 44.937L118.484 62H111.443L101.859 45.4922H96.279V62H90.2017ZM96.279 39.4149H104.606C105.775 39.4149 106.836 39.1228 107.791 38.5384C108.765 37.9541 109.534 37.1749 110.099 36.201C110.664 35.2271 110.946 34.1266 110.946 32.8995C110.946 31.6723 110.664 30.5718 110.099 29.5979C109.534 28.6045 108.765 27.8254 107.791 27.2605C106.836 26.6762 105.775 26.384 104.606 26.384H96.279V39.4149Z" fill="#354167"/>
<path d="M134.902 62.7596C132.214 62.7596 129.76 62.0682 127.539 60.6852C125.338 59.3022 123.576 57.4518 122.251 55.1339C120.946 52.7965 120.294 50.2156 120.294 47.3913C120.294 45.2487 120.673 43.2522 121.433 41.4017C122.193 39.5318 123.235 37.8956 124.559 36.4932C125.903 35.0713 127.462 33.961 129.234 33.1624C131.007 32.3638 132.896 31.9645 134.902 31.9645C137.142 31.9645 139.197 32.432 141.067 33.3669C142.937 34.2824 144.534 35.5582 145.859 37.1944C147.183 38.8111 148.157 40.681 148.781 42.8042C149.404 44.9078 149.589 47.1478 149.336 49.5242H126.809C127.062 50.8682 127.549 52.0855 128.27 53.1763C129.01 54.2476 129.945 55.0949 131.075 55.7182C132.224 56.3415 133.5 56.6629 134.902 56.6824C136.383 56.6824 137.727 56.3123 138.934 55.5722C140.161 54.832 141.165 53.8094 141.944 52.5043L148.109 53.936C146.94 56.5266 145.177 58.6497 142.82 60.3054C140.463 61.9415 137.824 62.7596 134.902 62.7596ZM126.605 44.8786H143.2C143.005 43.4762 142.509 42.2101 141.71 41.0803C140.931 39.9311 139.947 39.0254 138.759 38.3631C137.59 37.6814 136.305 37.3405 134.902 37.3405C133.519 37.3405 132.234 37.6716 131.046 38.3339C129.877 38.9962 128.903 39.9019 128.124 41.0511C127.364 42.1808 126.858 43.4567 126.605 44.8786Z" fill="#354167"/>
<path d="M179.845 43.6807V62H173.768V45.1708C173.768 43.8657 173.446 42.6775 172.803 41.6062C172.18 40.5349 171.333 39.6876 170.261 39.0643C169.21 38.4215 168.021 38.1002 166.697 38.1002C165.411 38.1002 164.233 38.4215 163.162 39.0643C162.09 39.6876 161.233 40.5349 160.59 41.6062C159.948 42.6775 159.626 43.8657 159.626 45.1708V62H153.549V32.7826H159.626V35.8796C160.639 34.672 161.886 33.7175 163.366 33.0163C164.846 32.3151 166.444 31.9645 168.158 31.9645C170.32 31.9645 172.287 32.4904 174.06 33.5422C175.832 34.5941 177.235 36.0062 178.267 37.7788C179.319 39.5513 179.845 41.5186 179.845 43.6807Z" fill="#354167"/>
<path d="M200.478 38.8598H194.343L194.313 62H188.236L188.265 38.8598H183.62V32.7826H188.265L188.236 23.6083H194.313L194.343 32.7826H200.478V38.8598Z" fill="#354167"/>
<path d="M205.084 62V21.0956H219.605C221.709 21.0956 223.608 21.5242 225.302 22.3812C227.016 23.2382 228.37 24.4751 229.364 26.0918C230.376 27.689 230.883 29.6076 230.883 31.8476C230.883 32.9384 230.708 34.0097 230.357 35.0615C230.006 36.1134 229.51 37.0386 228.867 37.8372C228.224 38.6358 227.445 39.2007 226.529 39.5318C227.776 39.8435 228.808 40.4083 229.626 41.2264C230.464 42.025 231.126 42.96 231.613 44.0313C232.1 45.1026 232.441 46.2129 232.636 47.3621C232.85 48.5113 232.957 49.6021 232.957 50.6344C232.957 52.816 232.431 54.7638 231.38 56.4779C230.328 58.192 228.916 59.5457 227.143 60.5391C225.39 61.513 223.452 62 221.329 62H205.084ZM211.161 56.7408H220.744C221.991 56.7408 223.121 56.4292 224.134 55.8059C225.166 55.1826 225.984 54.3255 226.588 53.2348C227.192 52.1245 227.494 50.8779 227.494 49.4949C227.494 48.2873 227.192 47.1478 226.588 46.0765C225.984 44.9857 225.166 44.1092 224.134 43.4469C223.121 42.7847 221.991 42.4535 220.744 42.4535H211.161V56.7408ZM211.161 37.2821H218.962C220.559 37.2821 221.933 36.7951 223.082 35.8212C224.231 34.8473 224.806 33.513 224.806 31.8184C224.806 30.0069 224.231 28.6532 223.082 27.7572C221.933 26.8417 220.559 26.384 218.962 26.384H211.161V37.2821Z" fill="#354167"/>
<path d="M238.184 32.7826H244.261V62H238.184V32.7826ZM241.281 28.5461C240.346 28.5461 239.567 28.2442 238.944 27.6403C238.321 27.0365 238.009 26.2768 238.009 25.3614C238.009 24.4654 238.321 23.7155 238.944 23.1116C239.567 22.4883 240.337 22.1767 241.252 22.1767C242.148 22.1767 242.908 22.4883 243.531 23.1116C244.154 23.7155 244.466 24.4654 244.466 25.3614C244.466 26.2768 244.154 27.0365 243.531 27.6403C242.927 28.2442 242.177 28.5461 241.281 28.5461Z" fill="#354167"/>
<path d="M275.722 62H268.71L261.522 49.6118L256.818 55.2215V62H250.741V18.1739H256.818V45.7843L267.687 32.7826H275.634L265.671 44.6741L275.722 62Z" fill="#354167"/>
<path d="M245.457 26C245.457 28.2091 243.666 30 241.457 30C239.247 30 237.457 28.2091 237.457 26C237.457 23.7908 239.247 22 241.457 22C243.666 22 245.457 23.7908 245.457 26Z" fill="#F23557"/>
</svg>
